<svg xmlns="http://www.w3.org/2000/svg" viewBox="0 0 24 24" fill="none" stroke="#6b6156" stroke-width="1.1" stroke-linecap="round" stroke-linejoin="round">
  <path d="M5.3 10.1 L6.6 9.7 C6.4 8.5 7.2 7.6 8.3 7.7 C9.3 7.8 9.9 8.6 9.8 9.5 C12 9.2 15.2 9.6 17 10.4 L19.4 10.2 L17.5 12.1 C17.7 14.5 15.7 16.6 12.9 16.8 C10.2 17 8 15.4 7.6 13 C7.4 11.9 7.6 10.9 8 10.3 C7.2 10.8 6.4 10.5 5.3 10.1 Z"/>
  <path d="M9.9 12.5 C11.8 11.6 14.3 12 15.8 13.3" stroke-width="0.85"/>
  <circle cx="8.2" cy="8.9" r="0.4" fill="#6b6156" stroke="none"/>
  <path d="M11.3 16.8 L11.1 19.8 M13.5 16.8 L13.5 19.8" stroke-width="1"/>
  <path d="M5 20 L19 20" stroke-width="0.9"/>
</svg>
