<svg xmlns="http://www.w3.org/2000/svg" viewBox="0 0 24 24" fill="none" stroke="#c9bda6" stroke-width="1.1" stroke-linecap="round" stroke-linejoin="round">
  <path d="M12 17 C10 16.2 7.4 15.2 5 13.4 C6.9 12.7 8.1 11.9 8.7 10.9 C6.9 10.1 5.7 8.5 5.3 6.4 C7.2 7 8.9 7 10.1 6.4 C10.4 5 11 3.7 12 2.7 C13 3.7 13.6 5 13.9 6.4 C15.1 7 16.8 7 18.7 6.4 C18.3 8.5 17.1 10.1 15.3 10.9 C15.9 11.9 17.1 12.7 19 13.4 C16.6 15.2 14 16.2 12 17 Z"/>
  <path d="M12 15.6 L12 4.6 M12 13.8 L6.6 12.9 M12 13.8 L17.4 12.9 M12 10.6 L6.8 7.3 M12 10.6 L17.2 7.3" stroke-width="0.7"/>
  <path d="M12 17 C11.9 18.2 11.7 19.4 11.3 20.6" stroke-width="1"/>
</svg>
